<svg width="164" height="37" viewBox="0 0 164 37" fill="none" xmlns="http://www.w3.org/2000/svg">
<path fill-rule="evenodd" clip-rule="evenodd" d="M38.2595 3.06239C37.3194 2.59024 36.1561 2.45109 34.8561 2.68757C34.0546 2.83396 33.2 3.12352 32.3138 3.56511C31.463 3.99061 30.6484 4.52389 29.8766 5.14244L33.0075 6.71574C33.7793 6.0972 34.5939 5.56391 35.4438 5.13922C36.33 4.69683 37.1836 4.40726 37.9861 4.26087C39.2861 4.02439 40.4494 4.16354 41.3895 4.6357L38.2595 3.06239Z" fill="#F0A72E"/>
<mask id="mask0" mask-type="alpha" maskUnits="userSpaceOnUse" x="0" y="0" width="31" height="35">
<path fill-rule="evenodd" clip-rule="evenodd" d="M0 0.609169H30.3026V34.2347H0V0.609169Z" fill="white"/>
</mask>
<g mask="url(#mask0)">
<path fill-rule="evenodd" clip-rule="evenodd" d="M27.1726 1.17282C26.0865 0.626667 24.7409 0.466602 23.2382 0.74008C22.3102 0.908993 21.3217 1.2436 20.2961 1.75597C18.5898 2.60858 16.9876 3.84728 15.5983 5.31199C13.0421 8.00736 11.2065 11.4677 10.762 14.6891C9.99487 14.8387 9.17285 15.1226 8.32945 15.5441C6.85838 16.2785 5.47751 17.345 4.28075 18.6063C1.71614 21.3064 -0.00971918 24.8971 -0.000420372 28.0228C0.00794856 30.3023 0.9369 31.9069 2.4368 32.6606L5.56678 34.2347C4.06595 33.4803 3.137 31.8756 3.12956 29.5961C3.11933 26.4704 4.84612 22.8798 7.4098 20.1796C8.60749 18.9183 9.98743 17.8518 11.4594 17.1174C12.3019 16.6959 13.1248 16.412 13.8911 16.2624C14.3356 13.041 16.1721 9.58067 18.7283 6.8853C20.1176 5.42058 21.7188 4.18188 23.4261 3.32928C24.4508 2.81691 25.4393 2.4823 26.3673 2.31338C27.8709 2.0391 29.2155 2.19997 30.3025 2.74612L27.1726 1.17282Z" fill="#F0A72E"/>
</g>
<path fill-rule="evenodd" clip-rule="evenodd" d="M23.4258 3.32944C28.2668 0.911568 32.2895 2.44465 33.0073 6.71574C33.7791 6.0972 34.5937 5.56392 35.4436 5.13922C40.0577 2.83476 43.8125 4.68557 43.8274 9.27115C43.8423 13.8575 40.1116 19.4462 35.4975 21.7506L11.5131 33.729C6.89254 36.0366 3.14419 34.1826 3.12932 29.5962C3.11444 25.0098 6.83768 19.4252 11.4583 17.1176C12.3026 16.6961 13.1246 16.4122 13.8908 16.2625C14.5771 11.2901 18.5774 5.75052 23.4258 3.32944Z" fill="#FFCA00"/>
<path fill-rule="evenodd" clip-rule="evenodd" d="M62.7052 5.31441C61.7651 4.84225 60.6018 4.7031 59.3019 4.93958C58.4994 5.08597 57.6457 5.37554 56.7586 5.81712C55.9087 6.24182 55.0942 6.77591 54.3224 7.39445L57.4523 8.96775C58.2241 8.34921 59.0387 7.81512 59.8896 7.39123C60.7748 6.94804 61.6294 6.65928 62.4309 6.51288C63.7318 6.27641 64.8942 6.41556 65.8343 6.88771L62.7052 5.31441Z" fill="#D43E3E"/>
<path fill-rule="evenodd" clip-rule="evenodd" d="M51.6138 3.41977C50.5277 2.87361 49.1821 2.71274 47.6795 2.98622C46.7514 3.15514 45.7648 3.48974 44.741 4.00131C43.0403 4.8507 41.4427 6.08618 40.0563 7.54848C37.4982 10.2463 35.6589 13.713 35.2135 16.9376C34.4398 17.0905 33.6243 17.3712 32.7744 17.7959C31.3052 18.5294 29.9262 19.596 28.7294 20.8564C26.1648 23.5566 24.4352 27.1488 24.4454 30.2745C24.4529 32.5532 25.3837 34.1563 26.8827 34.9108L30.0126 36.4833C28.5127 35.7296 27.5819 34.1265 27.5745 31.8478C27.5643 28.7221 29.2948 25.1299 31.8585 22.4297C33.0561 21.1685 34.4352 20.1027 35.9034 19.3692C36.7552 18.9445 37.5698 18.6638 38.3434 18.5109C38.7889 15.2855 40.6282 11.8196 43.1863 9.12179C44.5727 7.65948 46.1703 6.42401 47.871 5.57381C48.8939 5.06305 49.8814 4.72844 50.8085 4.55953C52.3121 4.28605 53.6567 4.44692 54.7438 4.99307L51.6138 3.41977Z" fill="#D43E3E"/>
<path fill-rule="evenodd" clip-rule="evenodd" d="M47.8706 5.57397C52.7116 3.1569 56.7352 4.69643 57.4521 8.96751C58.2239 8.34897 59.0385 7.81569 59.8893 7.39099C64.5034 5.08653 68.2573 6.93734 68.2722 11.5229C68.2871 16.1093 64.5573 21.6979 59.9433 24.0024L35.9579 35.9807C31.3448 38.2852 27.5899 36.4344 27.5751 31.848C27.5602 27.2616 31.2899 21.673 35.904 19.3685C36.7548 18.9446 37.5703 18.6639 38.3431 18.5103C39.0293 13.5386 43.0297 7.99184 47.8706 5.57397Z" fill="#FA7564"/>
<path d="M82.0797 26V12.88H84.0797L86.5997 19.88C86.7597 20.3333 86.9131 20.7933 87.0597 21.26C87.2197 21.7133 87.3797 22.1667 87.5397 22.62H87.6197C87.7797 22.1667 87.9264 21.7133 88.0597 21.26C88.2064 20.7933 88.3597 20.3333 88.5197 19.88L90.9997 12.88H93.0197V26H91.4597V18.78C91.4597 18.1933 91.4864 17.5467 91.5397 16.84C91.5931 16.1333 91.6397 15.4867 91.6797 14.9H91.5997L90.5597 17.88L88.0797 24.68H86.9797L84.4997 17.88L83.4597 14.9H83.3797C83.4197 15.4867 83.4597 16.1333 83.4997 16.84C83.5531 17.5467 83.5797 18.1933 83.5797 18.78V26H82.0797ZM98.3412 26.24C97.5278 26.24 96.8478 26 96.3012 25.52C95.7678 25.04 95.5012 24.36 95.5012 23.48C95.5012 22.4133 95.9745 21.6 96.9212 21.04C97.8678 20.4667 99.3812 20.0667 101.461 19.84C101.461 19.5333 101.428 19.2333 101.361 18.94C101.308 18.6467 101.208 18.3867 101.061 18.16C100.915 17.9333 100.708 17.7533 100.441 17.62C100.188 17.4733 99.8612 17.4 99.4612 17.4C98.9012 17.4 98.3745 17.5067 97.8812 17.72C97.3878 17.9333 96.9478 18.1733 96.5612 18.44L95.9212 17.3C96.3745 17.0067 96.9278 16.7267 97.5812 16.46C98.2345 16.18 98.9545 16.04 99.7412 16.04C100.928 16.04 101.788 16.4067 102.321 17.14C102.855 17.86 103.121 18.8267 103.121 20.04V26H101.761L101.621 24.84H101.561C101.095 25.2267 100.595 25.56 100.061 25.84C99.5278 26.1067 98.9545 26.24 98.3412 26.24ZM98.8212 24.92C99.2878 24.92 99.7278 24.8133 100.141 24.6C100.555 24.3733 100.995 24.0467 101.461 23.62V20.92C100.648 21.0267 99.9612 21.1533 99.4012 21.3C98.8545 21.4467 98.4078 21.62 98.0612 21.82C97.7278 22.02 97.4812 22.2533 97.3212 22.52C97.1745 22.7733 97.1012 23.0533 97.1012 23.36C97.1012 23.92 97.2678 24.32 97.6012 24.56C97.9345 24.8 98.3412 24.92 98.8212 24.92ZM105.83 26V16.28H107.19L107.33 18.04H107.39C107.723 17.4267 108.123 16.94 108.59 16.58C109.07 16.22 109.59 16.04 110.15 16.04C110.536 16.04 110.883 16.1067 111.19 16.24L110.87 17.68C110.71 17.6267 110.563 17.5867 110.43 17.56C110.296 17.5333 110.13 17.52 109.93 17.52C109.516 17.52 109.083 17.6867 108.63 18.02C108.19 18.3533 107.803 18.9333 107.47 19.76V26H105.83ZM115.473 26.24C114.953 26.24 114.513 26.16 114.153 26C113.807 25.84 113.52 25.62 113.293 25.34C113.08 25.06 112.927 24.72 112.833 24.32C112.74 23.92 112.693 23.48 112.693 23V17.62H111.253V16.38L112.773 16.28L112.973 13.56H114.353V16.28H116.973V17.62H114.353V23.02C114.353 23.62 114.46 24.0867 114.673 24.42C114.9 24.74 115.293 24.9 115.853 24.9C116.027 24.9 116.213 24.8733 116.413 24.82C116.613 24.7667 116.793 24.7067 116.953 24.64L117.273 25.88C117.007 25.9733 116.713 26.0533 116.393 26.12C116.087 26.2 115.78 26.24 115.473 26.24ZM120.632 26.24C119.818 26.24 119.138 26 118.592 25.52C118.058 25.04 117.792 24.36 117.792 23.48C117.792 22.4133 118.265 21.6 119.212 21.04C120.158 20.4667 121.672 20.0667 123.752 19.84C123.752 19.5333 123.718 19.2333 123.652 18.94C123.598 18.6467 123.498 18.3867 123.352 18.16C123.205 17.9333 122.998 17.7533 122.732 17.62C122.478 17.4733 122.152 17.4 121.752 17.4C121.192 17.4 120.665 17.5067 120.172 17.72C119.678 17.9333 119.238 18.1733 118.852 18.44L118.212 17.3C118.665 17.0067 119.218 16.7267 119.872 16.46C120.525 16.18 121.245 16.04 122.032 16.04C123.218 16.04 124.078 16.4067 124.612 17.14C125.145 17.86 125.412 18.8267 125.412 20.04V26H124.052L123.912 24.84H123.852C123.385 25.2267 122.885 25.56 122.352 25.84C121.818 26.1067 121.245 26.24 120.632 26.24ZM121.112 24.92C121.578 24.92 122.018 24.8133 122.432 24.6C122.845 24.3733 123.285 24.0467 123.752 23.62V20.92C122.938 21.0267 122.252 21.1533 121.692 21.3C121.145 21.4467 120.698 21.62 120.352 21.82C120.018 22.02 119.772 22.2533 119.612 22.52C119.465 22.7733 119.392 23.0533 119.392 23.36C119.392 23.92 119.558 24.32 119.892 24.56C120.225 24.8 120.632 24.92 121.112 24.92ZM132.94 26.24C132.273 26.24 131.647 26.1467 131.06 25.96C130.487 25.76 129.987 25.44 129.56 25C129.147 24.5467 128.82 23.96 128.58 23.24C128.34 22.52 128.22 21.6333 128.22 20.58V12.88H129.88V20.62C129.88 21.4067 129.96 22.0667 130.12 22.6C130.28 23.1333 130.493 23.56 130.76 23.88C131.04 24.2 131.367 24.4333 131.74 24.58C132.113 24.7133 132.513 24.78 132.94 24.78C133.38 24.78 133.787 24.7133 134.16 24.58C134.533 24.4333 134.86 24.2 135.14 23.88C135.42 23.56 135.64 23.1333 135.8 22.6C135.96 22.0667 136.04 21.4067 136.04 20.62V12.88H137.64V20.58C137.64 21.6333 137.52 22.52 137.28 23.24C137.04 23.96 136.707 24.5467 136.28 25C135.867 25.44 135.373 25.76 134.8 25.96C134.227 26.1467 133.607 26.24 132.94 26.24ZM140.821 26V12.88H144.561C145.294 12.88 145.961 12.9467 146.561 13.08C147.174 13.2133 147.694 13.4333 148.121 13.74C148.547 14.0333 148.881 14.4267 149.121 14.92C149.361 15.4133 149.481 16.02 149.481 16.74C149.481 17.4333 149.361 18.0333 149.121 18.54C148.894 19.0467 148.567 19.4667 148.141 19.8C147.714 20.1333 147.201 20.3867 146.601 20.56C146.014 20.72 145.361 20.8 144.641 20.8H142.481V26H140.821ZM142.481 19.44H144.441C145.587 19.44 146.434 19.2267 146.981 18.8C147.541 18.36 147.821 17.6733 147.821 16.74C147.821 15.7933 147.527 15.14 146.941 14.78C146.367 14.4067 145.507 14.22 144.361 14.22H142.481V19.44Z" fill="white"/>
</svg>
